<svg width="17" height="16" viewBox="0 0 17 16" fill="none" xmlns="http://www.w3.org/2000/svg">
<path d="M10.2191 1.33334H4.21908C3.86545 1.33334 3.52631 1.47382 3.27627 1.72387C3.02622 1.97392 2.88574 2.31305 2.88574 2.66668V13.3333C2.88574 13.687 3.02622 14.0261 3.27627 14.2762C3.52631 14.5262 3.86545 14.6667 4.21908 14.6667H12.2191C12.5727 14.6667 12.9118 14.5262 13.1619 14.2762C13.4119 14.0261 13.5524 13.687 13.5524 13.3333V4.66668L10.2191 1.33334Z" stroke="#020817" stroke-width="1.33333" stroke-linecap="round" stroke-linejoin="round"/>
<path d="M9.55176 1.33334V4.00001C9.55176 4.35363 9.69223 4.69277 9.94228 4.94282C10.1923 5.19287 10.5315 5.33334 10.8851 5.33334H13.5518" stroke="#020817" stroke-width="1.33333" stroke-linecap="round" stroke-linejoin="round"/>
<path d="M6.88509 6H5.55176" stroke="#020817" stroke-width="1.33333" stroke-linecap="round" stroke-linejoin="round"/>
<path d="M10.8851 8.66666H5.55176" stroke="#020817" stroke-width="1.33333" stroke-linecap="round" stroke-linejoin="round"/>
<path d="M10.8851 11.3333H5.55176" stroke="#020817" stroke-width="1.33333" stroke-linecap="round" stroke-linejoin="round"/>
</svg>
